<?xml version="1.0" encoding="utf-8"?>
<!-- Generator: Adobe Illustrator 16.0.0, SVG Export Plug-In . SVG Version: 6.00 Build 0)  -->
<!DOCTYPE svg PUBLIC "-//W3C//DTD SVG 1.1//EN" "http://www.w3.org/Graphics/SVG/1.1/DTD/svg11.dtd">
<svg version="1.1" id="Layer_1" xmlns="http://www.w3.org/2000/svg" xmlns:xlink="http://www.w3.org/1999/xlink" x="0px" y="0px"
	 width="490.266px" height="87.62px" viewBox="0 0 490.266 87.62" enable-background="new 0 0 490.266 87.62" xml:space="preserve">
<g>
	<path fill="#DC3645" d="M72.134,28.966c1.188,0,1.782,0.528,1.782,1.584c0,0.485-0.155,1.013-0.462,1.584l-16.5,28.512
		c-0.485,0.881-1.221,1.628-2.211,2.244c-0.99,0.617-1.904,0.924-2.739,0.924H7.652c-1.232,0-1.848-0.528-1.848-1.584
		c0-0.484,0.153-1.012,0.462-1.584l7.326-12.672c0.528-0.88,1.276-1.627,2.244-2.244c0.967-0.616,1.891-0.924,2.772-0.924h22.176
		c0.885,0,1.813-0.307,2.786-0.921c0.973-0.615,1.724-1.36,2.256-2.238l3.648-6.319c0.278-0.576,0.417-1.108,0.417-1.597
		c0-1.064-0.594-1.598-1.782-1.598c-0.873,0-1.787,0.312-2.745,0.933c-0.959,0.622-1.7,1.376-2.222,2.263l-1.84,3.173
		c-0.486,0.872-1.225,1.612-2.217,2.221c-0.992,0.61-1.908,0.914-2.745,0.914H20.46c-1.235,0-1.852-0.528-1.852-1.584
		c0-0.484,0.154-1.012,0.462-1.584l3.696-6.336c0.483-0.879,1.221-1.627,2.211-2.244c0.99-0.616,1.924-0.924,2.805-0.924H72.134z
		 M40.31,51.135c0.315-0.57,0.475-1.097,0.475-1.581c0-1.053-0.617-1.58-1.848-1.58c-0.881,0-1.805,0.308-2.772,0.924
		c-0.968,0.617-1.694,1.364-2.178,2.244l-3.696,6.336c-0.309,0.572-0.462,1.1-0.462,1.584c0,1.056,0.594,1.584,1.782,1.584
		c0.881,0,1.816-0.307,2.807-0.923c0.99-0.615,1.729-1.362,2.213-2.242L40.31,51.135z"/>
	<path fill="#DC3645" d="M126.254,28.966c1.188,0,1.782,0.528,1.782,1.584c0,0.485-0.155,1.013-0.462,1.584l-16.5,28.512
		c-0.485,0.881-1.221,1.628-2.211,2.244c-0.99,0.617-1.904,0.924-2.739,0.924H61.771c-1.232,0-1.848-0.528-1.848-1.584
		c0-0.484,0.153-1.012,0.462-1.584l16.5-28.512c0.483-0.879,1.221-1.627,2.211-2.244c0.99-0.616,1.924-0.924,2.805-0.924h15.84
		c1.188,0,1.782,0.529,1.782,1.586c0,0.484-0.152,1.014-0.456,1.586L84.416,57.482c-0.313,0.571-0.468,1.1-0.468,1.582
		c0,1.055,0.594,1.582,1.782,1.582c0.88,0,1.815-0.307,2.805-0.924c0.99-0.616,1.726-1.363,2.211-2.244l14.652-25.344
		c0.484-0.879,1.221-1.627,2.211-2.244c0.99-0.616,1.924-0.924,2.805-0.924H126.254z"/>
	<path fill="#DC3645" d="M122.161,85.198c-0.66,1.144-1.364,1.716-2.112,1.716c-0.396,0-0.726-0.221-0.99-0.66l-8.712-14.85
		c-0.264-0.44-0.396-0.99-0.396-1.65c0-1.277,0.33-2.465,0.99-3.564l30.624-53.064c0.484-0.88,1.221-1.627,2.211-2.244
		c0.99-0.616,1.924-0.924,2.805-0.924h15.84c1.188,0,1.782,0.528,1.782,1.584c0,0.485-0.155,1.013-0.462,1.584l-3.696,6.336
		c-0.308,0.572-0.462,1.101-0.462,1.584c0,1.056,0.616,1.584,1.848,1.584c1.584,0,2.376,0.375,2.376,1.122
		c0,0.66-0.572,1.188-1.716,1.584c-0.924,0.309-1.76,0.462-2.508,0.462c-0.881,0-1.805,0.309-2.772,0.924
		c-0.968,0.617-1.716,1.364-2.244,2.244L122.161,85.198z"/>
	<path fill="#DC3645" d="M205.718,28.966c1.188,0,1.782,0.528,1.782,1.584c0,0.485-0.155,1.013-0.462,1.584l-16.5,28.512
		c-0.485,0.881-1.221,1.628-2.211,2.244c-0.99,0.617-1.904,0.924-2.739,0.924h-44.352c-1.232,0-1.848-0.528-1.848-1.584
		c0-0.484,0.154-1.012,0.462-1.584l16.5-28.512c0.484-0.879,1.221-1.627,2.211-2.244c0.99-0.616,1.924-0.924,2.805-0.924H205.718z
		 M183.014,35.302c0.307-0.571,0.462-1.099,0.462-1.584c0-1.056-0.594-1.584-1.782-1.584c-0.879,0-1.802,0.309-2.768,0.925
		s-1.713,1.366-2.24,2.247l-12.803,22.177c-0.314,0.571-0.471,1.099-0.471,1.581c0,1.055,0.594,1.582,1.782,1.582
		c0.879,0,1.815-0.307,2.805-0.924c0.99-0.616,1.728-1.363,2.212-2.244L183.014,35.302z"/>
	<path fill="#DC3645" d="M292.177,28.966c1.188,0,1.781,0.528,1.781,1.584c0,0.485-0.154,1.013-0.461,1.584l-16.5,28.512
		c-0.486,0.881-1.223,1.628-2.213,2.244c-0.988,0.617-1.902,0.924-2.738,0.924h-44.352c-1.232,0-1.848-0.528-1.848-1.584
		c0-0.484,0.154-1.012,0.462-1.584l30.691-53.064c0.658-1.144,1.34-1.716,2.045-1.716c0.396,0,0.727,0.198,0.99,0.594l8.777,14.916
		c0.264,0.44,0.396,1.034,0.396,1.782c0,1.1-0.264,2.112-0.791,3.036c-0.266,0.44-0.396,0.858-0.396,1.254
		c0,1.013,0.66,1.518,1.98,1.518H292.177z M269.472,35.302c0.309-0.571,0.463-1.099,0.463-1.584c0-1.056-0.594-1.584-1.781-1.584
		c-0.877,0-1.801,0.309-2.768,0.925c-0.969,0.617-1.715,1.366-2.242,2.247l-12.803,22.177c-0.314,0.571-0.471,1.099-0.471,1.581
		c0,1.055,0.594,1.582,1.781,1.582c0.881,0,1.816-0.307,2.807-0.924c0.988-0.616,1.727-1.363,2.211-2.244L269.472,35.302z"/>
	<path fill="#DC3645" d="M323.922,21.376c0.264,0.44,0.396,1.034,0.396,1.782c0,1.1-0.264,2.112-0.792,3.036l-19.932,34.452
		c-0.484,0.881-1.221,1.628-2.211,2.244c-0.99,0.617-1.903,0.924-2.739,0.924h-15.84c-1.232,0-1.848-0.528-1.848-1.584
		c0-0.484,0.153-1.012,0.462-1.584l20.13-34.848l10.56-18.216c0.66-1.144,1.342-1.716,2.047-1.716c0.396,0,0.726,0.198,0.989,0.594
		L323.922,21.376z"/>
	<path fill="#DC3645" d="M372.563,28.966c1.188,0,1.782,0.528,1.782,1.584c0,0.485-0.155,1.013-0.462,1.584l-16.5,28.512
		c-0.485,0.881-1.222,1.628-2.212,2.244c-0.989,0.617-1.903,0.924-2.738,0.924h-44.353c-1.232,0-1.848-0.528-1.848-1.584
		c0-0.484,0.153-1.012,0.462-1.584l16.5-28.512c0.483-0.879,1.221-1.627,2.211-2.244c0.99-0.616,1.925-0.924,2.805-0.924H372.563z
		 M349.859,35.302c0.308-0.571,0.462-1.099,0.462-1.584c0-1.056-0.594-1.584-1.782-1.584c-0.878,0-1.802,0.309-2.768,0.925
		c-0.967,0.617-1.713,1.366-2.24,2.247l-12.803,22.177c-0.314,0.571-0.472,1.099-0.472,1.581c0,1.055,0.595,1.582,1.782,1.582
		c0.88,0,1.815-0.307,2.806-0.924c0.989-0.616,1.727-1.363,2.212-2.244L349.859,35.302z"/>
	<path fill="#DC3645" d="M385.235,71.404c-0.264-0.484-0.396-1.1-0.396-1.848c0-1.101,0.264-2.09,0.792-2.97
		c0.22-0.44,0.33-0.858,0.33-1.254c0-1.013-0.639-1.518-1.914-1.518h-22.177c-1.231,0-1.848-0.528-1.848-1.584
		c0-0.484,0.154-1.012,0.462-1.584l16.5-28.512c0.483-0.879,1.221-1.627,2.211-2.244c0.99-0.616,1.925-0.924,2.806-0.924h44.352
		c1.188,0,1.782,0.528,1.782,1.584c0,0.485-0.155,1.013-0.462,1.584l-3.696,6.336c-0.484,0.881-1.221,1.628-2.211,2.244
		c-0.99,0.617-1.903,0.924-2.739,0.924h-15.84c-1.232,0-1.848-0.528-1.848-1.586c0-0.483,0.152-1.012,0.46-1.585l1.84-3.171
		c0.314-0.57,0.472-1.097,0.472-1.581c0-1.054-0.594-1.581-1.782-1.581c-0.88,0-1.805,0.309-2.772,0.924
		c-0.969,0.616-1.716,1.363-2.244,2.243L384.51,57.478c-0.309,0.572-0.462,1.1-0.462,1.584c0,1.056,0.594,1.584,1.781,1.584
		c0.879,0,1.813-0.309,2.8-0.925c0.988-0.617,1.725-1.366,2.208-2.248l5.484-9.5c0.528-0.88,1.275-1.627,2.244-2.243
		c0.968-0.616,1.892-0.924,2.772-0.924h15.842c1.231,0,1.848,0.528,1.848,1.584c0,0.484-0.176,1.013-0.527,1.584l-21.45,37.224
		c-0.66,1.144-1.364,1.716-2.112,1.716c-0.396,0-0.704-0.221-0.924-0.66L385.235,71.404z"/>
	<path fill="#DC3645" d="M458.297,41.638c-1.232,0-1.849-0.528-1.849-1.584c0-0.484,0.154-1.012,0.462-1.584l1.849-3.168
		c0.307-0.571,0.462-1.099,0.462-1.584c0-1.056-0.595-1.584-1.783-1.584c-0.881,0-1.806,0.309-2.774,0.923
		c-0.969,0.615-1.717,1.363-2.245,2.242l-3.679,6.308c-0.317,0.578-0.475,1.111-0.475,1.6c0,1.066,0.615,1.6,1.848,1.6h22.177
		c1.23,0,1.848,0.528,1.848,1.584c0,0.484-0.177,1.013-0.528,1.584l-7.326,12.672c-0.484,0.881-1.221,1.628-2.211,2.244
		c-0.989,0.617-1.903,0.924-2.738,0.924H416.98c-1.232,0-1.848-0.528-1.848-1.584c0-0.484,0.153-1.012,0.462-1.584l3.696-6.336
		c0.483-0.88,1.221-1.627,2.211-2.244c0.989-0.616,1.924-0.924,2.805-0.924h15.84c1.188,0,1.782,0.528,1.782,1.584
		c0,0.484-0.155,1.013-0.462,1.584l-1.849,3.168c-0.308,0.572-0.462,1.1-0.462,1.584c0,1.056,0.595,1.584,1.783,1.584
		c0.881,0,1.816-0.307,2.808-0.923c0.989-0.615,1.727-1.362,2.212-2.242l3.695-6.336c0.306-0.572,0.458-1.102,0.458-1.586
		c0-1.056-0.616-1.585-1.848-1.585h-22.176c-1.188,0-1.782-0.528-1.782-1.584c0-0.484,0.153-1.012,0.462-1.584l7.326-12.672
		c0.483-0.879,1.221-1.627,2.211-2.244c0.99-0.616,1.924-0.924,2.805-0.924h44.353c1.188,0,1.781,0.528,1.781,1.584
		c0,0.485-0.154,1.013-0.462,1.584l-3.695,6.336c-0.485,0.881-1.222,1.628-2.211,2.244c-0.99,0.617-1.904,0.924-2.739,0.924H458.297
		z"/>
</g>
<g>
	<g>
		<path fill="#5385C5" d="M71.134,25.966c1.188,0,1.782,0.528,1.782,1.584c0,0.485-0.155,1.013-0.462,1.584l-16.5,28.512
			c-0.485,0.881-1.221,1.628-2.211,2.244c-0.99,0.617-1.904,0.924-2.739,0.924H6.652c-1.232,0-1.848-0.528-1.848-1.584
			c0-0.484,0.153-1.012,0.462-1.584l7.326-12.672c0.528-0.88,1.276-1.627,2.244-2.244c0.967-0.616,1.891-0.924,2.772-0.924h22.176
			c0.885,0,1.813-0.307,2.786-0.921c0.973-0.615,1.724-1.36,2.256-2.238l3.648-6.319c0.278-0.576,0.417-1.108,0.417-1.597
			c0-1.064-0.594-1.598-1.782-1.598c-0.873,0-1.787,0.312-2.745,0.933c-0.959,0.622-1.7,1.376-2.222,2.263l-1.84,3.173
			c-0.486,0.872-1.225,1.612-2.217,2.221c-0.992,0.61-1.908,0.914-2.745,0.914H19.46c-1.235,0-1.852-0.528-1.852-1.584
			c0-0.484,0.154-1.012,0.462-1.584l3.696-6.336c0.483-0.879,1.221-1.627,2.211-2.244c0.99-0.616,1.924-0.924,2.805-0.924H71.134z
			 M39.31,48.135c0.315-0.57,0.475-1.097,0.475-1.581c0-1.053-0.617-1.58-1.848-1.58c-0.881,0-1.805,0.308-2.772,0.924
			c-0.968,0.617-1.694,1.364-2.178,2.244l-3.696,6.336c-0.309,0.572-0.462,1.1-0.462,1.584c0,1.056,0.594,1.584,1.782,1.584
			c0.881,0,1.816-0.307,2.807-0.923c0.99-0.615,1.729-1.362,2.213-2.242L39.31,48.135z"/>
		<path fill="#5385C5" d="M125.254,25.966c1.188,0,1.782,0.528,1.782,1.584c0,0.485-0.155,1.013-0.462,1.584l-16.5,28.512
			c-0.485,0.881-1.221,1.628-2.211,2.244c-0.99,0.617-1.904,0.924-2.739,0.924H60.771c-1.232,0-1.848-0.528-1.848-1.584
			c0-0.484,0.153-1.012,0.462-1.584l16.5-28.512c0.483-0.879,1.221-1.627,2.211-2.244c0.99-0.616,1.924-0.924,2.805-0.924h15.84
			c1.188,0,1.782,0.529,1.782,1.586c0,0.484-0.152,1.014-0.456,1.586L83.416,54.482c-0.313,0.571-0.468,1.1-0.468,1.582
			c0,1.055,0.594,1.582,1.782,1.582c0.88,0,1.815-0.307,2.805-0.924c0.99-0.616,1.726-1.363,2.211-2.244l14.652-25.344
			c0.484-0.879,1.221-1.627,2.211-2.244c0.99-0.616,1.924-0.924,2.805-0.924H125.254z"/>
		<path fill="#5385C5" d="M121.161,82.198c-0.66,1.144-1.364,1.716-2.112,1.716c-0.396,0-0.726-0.221-0.99-0.66l-8.712-14.85
			c-0.264-0.44-0.396-0.99-0.396-1.65c0-1.277,0.33-2.465,0.99-3.564l30.624-53.064c0.484-0.88,1.221-1.627,2.211-2.244
			c0.99-0.616,1.924-0.924,2.805-0.924h15.84c1.188,0,1.782,0.528,1.782,1.584c0,0.485-0.155,1.013-0.462,1.584l-3.696,6.336
			c-0.308,0.572-0.462,1.101-0.462,1.584c0,1.056,0.616,1.584,1.848,1.584c1.584,0,2.376,0.375,2.376,1.122
			c0,0.66-0.572,1.188-1.716,1.584c-0.924,0.309-1.76,0.462-2.508,0.462c-0.881,0-1.805,0.309-2.772,0.924
			c-0.968,0.617-1.716,1.364-2.244,2.244L121.161,82.198z"/>
		<path fill="#5385C5" d="M204.718,25.966c1.188,0,1.782,0.528,1.782,1.584c0,0.485-0.155,1.013-0.462,1.584l-16.5,28.512
			c-0.485,0.881-1.221,1.628-2.211,2.244c-0.99,0.617-1.904,0.924-2.739,0.924h-44.352c-1.232,0-1.848-0.528-1.848-1.584
			c0-0.484,0.154-1.012,0.462-1.584l16.5-28.512c0.484-0.879,1.221-1.627,2.211-2.244c0.99-0.616,1.924-0.924,2.805-0.924H204.718z
			 M182.014,32.302c0.307-0.571,0.462-1.099,0.462-1.584c0-1.056-0.594-1.584-1.782-1.584c-0.879,0-1.802,0.309-2.768,0.925
			s-1.713,1.366-2.24,2.247l-12.803,22.177c-0.314,0.571-0.471,1.099-0.471,1.581c0,1.055,0.594,1.582,1.782,1.582
			c0.879,0,1.815-0.307,2.805-0.924c0.99-0.616,1.728-1.363,2.212-2.244L182.014,32.302z"/>
		<path fill="#5385C5" d="M291.177,25.966c1.188,0,1.781,0.528,1.781,1.584c0,0.485-0.154,1.013-0.461,1.584l-16.5,28.512
			c-0.486,0.881-1.223,1.628-2.213,2.244c-0.988,0.617-1.902,0.924-2.738,0.924h-44.352c-1.232,0-1.848-0.528-1.848-1.584
			c0-0.484,0.154-1.012,0.462-1.584l30.691-53.064c0.658-1.144,1.34-1.716,2.045-1.716c0.396,0,0.727,0.198,0.99,0.594l8.777,14.916
			c0.264,0.44,0.396,1.034,0.396,1.782c0,1.1-0.264,2.112-0.791,3.036c-0.266,0.44-0.396,0.858-0.396,1.254
			c0,1.013,0.66,1.518,1.98,1.518H291.177z M268.472,32.302c0.309-0.571,0.463-1.099,0.463-1.584c0-1.056-0.594-1.584-1.781-1.584
			c-0.877,0-1.801,0.309-2.768,0.925c-0.969,0.617-1.715,1.366-2.242,2.247l-12.803,22.177c-0.314,0.571-0.471,1.099-0.471,1.581
			c0,1.055,0.594,1.582,1.781,1.582c0.881,0,1.816-0.307,2.807-0.924c0.988-0.616,1.727-1.363,2.211-2.244L268.472,32.302z"/>
		<path fill="#5385C5" d="M322.922,18.376c0.264,0.44,0.396,1.034,0.396,1.782c0,1.1-0.264,2.112-0.792,3.036l-19.932,34.452
			c-0.484,0.881-1.221,1.628-2.211,2.244c-0.99,0.617-1.903,0.924-2.739,0.924h-15.84c-1.232,0-1.848-0.528-1.848-1.584
			c0-0.484,0.153-1.012,0.462-1.584l20.13-34.848l10.56-18.216c0.66-1.144,1.342-1.716,2.047-1.716c0.396,0,0.726,0.198,0.989,0.594
			L322.922,18.376z"/>
		<path fill="#5385C5" d="M371.563,25.966c1.188,0,1.782,0.528,1.782,1.584c0,0.485-0.155,1.013-0.462,1.584l-16.5,28.512
			c-0.485,0.881-1.222,1.628-2.212,2.244c-0.989,0.617-1.903,0.924-2.738,0.924h-44.353c-1.232,0-1.848-0.528-1.848-1.584
			c0-0.484,0.153-1.012,0.462-1.584l16.5-28.512c0.483-0.879,1.221-1.627,2.211-2.244c0.99-0.616,1.925-0.924,2.805-0.924H371.563z
			 M348.859,32.302c0.308-0.571,0.462-1.099,0.462-1.584c0-1.056-0.594-1.584-1.782-1.584c-0.878,0-1.802,0.309-2.768,0.925
			c-0.967,0.617-1.713,1.366-2.24,2.247l-12.803,22.177c-0.314,0.571-0.472,1.099-0.472,1.581c0,1.055,0.595,1.582,1.782,1.582
			c0.88,0,1.815-0.307,2.806-0.924c0.989-0.616,1.727-1.363,2.212-2.244L348.859,32.302z"/>
		<path fill="#5385C5" d="M384.235,68.404c-0.264-0.484-0.396-1.1-0.396-1.848c0-1.101,0.264-2.09,0.792-2.97
			c0.22-0.44,0.33-0.858,0.33-1.254c0-1.013-0.639-1.518-1.914-1.518h-22.177c-1.231,0-1.848-0.528-1.848-1.584
			c0-0.484,0.154-1.012,0.462-1.584l16.5-28.512c0.483-0.879,1.221-1.627,2.211-2.244c0.99-0.616,1.925-0.924,2.806-0.924h44.352
			c1.188,0,1.782,0.528,1.782,1.584c0,0.485-0.155,1.013-0.462,1.584l-3.696,6.336c-0.484,0.881-1.221,1.628-2.211,2.244
			c-0.99,0.617-1.903,0.924-2.739,0.924h-15.84c-1.232,0-1.848-0.528-1.848-1.586c0-0.483,0.152-1.012,0.46-1.585l1.84-3.171
			c0.314-0.57,0.472-1.097,0.472-1.581c0-1.054-0.594-1.581-1.782-1.581c-0.88,0-1.805,0.309-2.772,0.924
			c-0.969,0.616-1.716,1.363-2.244,2.243L383.51,54.478c-0.309,0.572-0.462,1.1-0.462,1.584c0,1.056,0.594,1.584,1.781,1.584
			c0.879,0,1.813-0.309,2.8-0.925c0.988-0.617,1.725-1.366,2.208-2.248l5.484-9.5c0.528-0.88,1.275-1.627,2.244-2.243
			c0.968-0.616,1.892-0.924,2.772-0.924h15.842c1.231,0,1.848,0.528,1.848,1.584c0,0.484-0.176,1.013-0.527,1.584l-21.45,37.224
			c-0.66,1.144-1.364,1.716-2.112,1.716c-0.396,0-0.704-0.221-0.924-0.66L384.235,68.404z"/>
		<path fill="#5385C5" d="M457.297,38.638c-1.232,0-1.849-0.528-1.849-1.584c0-0.484,0.154-1.012,0.462-1.584l1.849-3.168
			c0.307-0.571,0.462-1.099,0.462-1.584c0-1.056-0.595-1.584-1.783-1.584c-0.881,0-1.806,0.309-2.774,0.923
			c-0.969,0.615-1.717,1.363-2.245,2.242l-3.679,6.308c-0.317,0.578-0.475,1.111-0.475,1.6c0,1.066,0.615,1.6,1.848,1.6h22.177
			c1.23,0,1.848,0.528,1.848,1.584c0,0.484-0.177,1.013-0.528,1.584l-7.326,12.672c-0.484,0.881-1.221,1.628-2.211,2.244
			c-0.989,0.617-1.903,0.924-2.738,0.924H415.98c-1.232,0-1.848-0.528-1.848-1.584c0-0.484,0.153-1.012,0.462-1.584l3.696-6.336
			c0.483-0.88,1.221-1.627,2.211-2.244c0.989-0.616,1.924-0.924,2.805-0.924h15.84c1.188,0,1.782,0.528,1.782,1.584
			c0,0.484-0.155,1.013-0.462,1.584l-1.849,3.168c-0.308,0.572-0.462,1.1-0.462,1.584c0,1.056,0.595,1.584,1.783,1.584
			c0.881,0,1.816-0.307,2.808-0.923c0.989-0.615,1.727-1.362,2.212-2.242l3.695-6.336c0.306-0.572,0.458-1.102,0.458-1.586
			c0-1.056-0.616-1.585-1.848-1.585h-22.176c-1.188,0-1.782-0.528-1.782-1.584c0-0.484,0.153-1.012,0.462-1.584l7.326-12.672
			c0.483-0.879,1.221-1.627,2.211-2.244c0.99-0.616,1.924-0.924,2.805-0.924h44.353c1.188,0,1.781,0.528,1.781,1.584
			c0,0.485-0.154,1.013-0.462,1.584l-3.695,6.336c-0.485,0.881-1.222,1.628-2.211,2.244c-0.99,0.617-1.904,0.924-2.739,0.924
			H457.297z"/>
	</g>
</g>
</svg>
