<?xml version="1.0" encoding="utf-8"?>
<!-- Generator: Adobe Illustrator 16.0.0, SVG Export Plug-In . SVG Version: 6.00 Build 0)  -->
<!DOCTYPE svg PUBLIC "-//W3C//DTD SVG 1.1//EN" "http://www.w3.org/Graphics/SVG/1.1/DTD/svg11.dtd">
<svg version="1.1" xmlns="http://www.w3.org/2000/svg" xmlns:xlink="http://www.w3.org/1999/xlink" x="0px" y="0px" width="512px"
	 height="512px" viewBox="0 0 512 512" enable-background="new 0 0 512 512" xml:space="preserve">
<g id="Layer_1" display="none">
	<title></title>
	<path display="inline" fill="#5385C5" d="M456.69,421.39L362.6,327.3c22.653-30.156,34.882-66.863,34.841-104.58
		C397.44,126.38,319.06,48,222.72,48C126.38,48,48,126.38,48,222.72c0,96.341,78.38,174.721,174.72,174.721
		c37.716,0.041,74.423-12.188,104.58-34.841l94.09,94.091c10.294,9.201,26.099,8.315,35.301-1.978
		C465.172,445.224,465.172,430.878,456.69,421.39L456.69,421.39z M97.92,222.72c0-68.925,55.875-124.8,124.8-124.8
		c68.924,0,124.799,55.875,124.799,124.8c0,68.924-55.875,124.799-124.799,124.799C153.829,347.438,98.002,291.611,97.92,222.72z"/>
</g>
<g id="Layer_2">
	<path fill="#5385C5" d="M391.659,357.734l0.015-0.014L289.927,255.973l100.722-100.722c0.333-0.3,0.662-0.607,0.982-0.927
		c9.373-9.373,9.372-24.569,0.001-33.941c-9.359-9.359-24.521-9.372-33.896-0.043l-0.015-0.015L256,222.046L154.351,120.396
		c-0.01-0.01-0.018-0.02-0.026-0.029c-0.009-0.009-0.02-0.017-0.029-0.026l-0.274-0.275l-0.007,0.007
		c-9.395-9.071-24.359-8.977-33.632,0.296c-9.372,9.372-9.373,24.568,0,33.941c0.192,0.192,0.391,0.375,0.588,0.558l101.104,101.104
		L120.397,357.648c-0.01,0.01-0.02,0.02-0.028,0.027c-0.01,0.01-0.018,0.019-0.027,0.028l-0.275,0.274l0.007,0.008
		c-9.07,9.395-8.976,24.359,0.295,33.631c9.372,9.372,24.567,9.373,33.941,0c0.192-0.191,0.374-0.391,0.559-0.587l101.132-101.132
		L356.75,390.647c0.298,0.335,0.604,0.663,0.927,0.985c9.371,9.371,24.568,9.371,33.94,0
		C400.977,382.273,400.988,367.111,391.659,357.734z"/>
</g>
</svg>
