<?xml version="1.0" encoding="utf-8"?>
<!-- Generator: Adobe Illustrator 16.0.0, SVG Export Plug-In . SVG Version: 6.00 Build 0)  -->
<!DOCTYPE svg PUBLIC "-//W3C//DTD SVG 1.1//EN" "http://www.w3.org/Graphics/SVG/1.1/DTD/svg11.dtd">
<svg version="1.1" id="Layer_1" xmlns="http://www.w3.org/2000/svg" xmlns:xlink="http://www.w3.org/1999/xlink" x="0px" y="0px"
	 width="512px" height="512px" viewBox="0 0 512 512" enable-background="new 0 0 512 512" xml:space="preserve">
<title></title>
<path fill="#5385C5" d="M456.69,421.39L362.6,327.3c22.653-30.156,34.882-66.863,34.841-104.58C397.44,126.38,319.06,48,222.72,48
	C126.38,48,48,126.38,48,222.72c0,96.341,78.38,174.721,174.72,174.721c37.716,0.041,74.423-12.188,104.58-34.841l94.09,94.091
	c10.294,9.201,26.099,8.315,35.301-1.978C465.172,445.224,465.172,430.878,456.69,421.39L456.69,421.39z M97.92,222.72
	c0-68.925,55.875-124.8,124.8-124.8c68.924,0,124.799,55.875,124.799,124.8c0,68.924-55.875,124.799-124.799,124.799
	C153.829,347.438,98.002,291.611,97.92,222.72z"/>
</svg>
